<?xml version="1.0" encoding="utf-8"?><!DOCTYPE svg PUBLIC "-//W3C//DTD SVG 1.1//EN" "http://www.w3.org/Graphics/SVG/1.1/DTD/svg11.dtd"><svg version="1.1" xmlns="http://www.w3.org/2000/svg" xmlns:xlink="http://www.w3.org/1999/xlink" x="0px" y="0px" viewBox="-0.324 5.604 100 110.98875" enable-background="new -0.324 5.604 100 88.791" xml:space="preserve"><g><path d="M21.785,66.12C21.336,75.52-2.102,77.288,9.345,89.43c2.641-9.363,9.771-8.321,16.862-17.572c0,0,0.241-1.161-1.368-3.072
		C23.662,67.387,21.785,66.12,21.785,66.12z"/><path d="M-0.324,89.339c0,1.788,3.268,5.057,5.056,5.057c0.701,0,1.983-1.982,1.983-1.982l-5.056-5.061
		C1.659,87.353-0.324,88.635-0.324,89.339z"/><path d="M18.909,57.569c0,0-0.743,1.782-0.577,2.363c0,0,0.922,0.814,2.234,2.072c-4.862-1.009-10.04,1.295-14.363,5.618
		c-6.305,6.308-8.382,14.497-2.076,20.804l0.002-0.002c0,0.001,0,0.002,0,0.002l5.182,5.184l1.471-1.472l-5.182-5.184l0-0.001
		C0.256,81.606,2.6,74.712,7.947,69.366c5.289-5.287,12.028-7.566,17.347-2.448c2.014,2.311,3.783,4.742,4.185,6.521l2.65-2.649
		L18.909,57.569z"/></g><path d="M99.674,5.65c0,0-15.894-0.458-20.662,1.553c-5.773,2.429-18.081,15.24-29.336,27.927
	C38.42,22.444,26.113,9.632,20.339,7.203C15.57,5.191-0.324,5.649-0.324,5.649l42.23,38.393
	C33.147,54.25,26.449,62.565,26.449,62.565l5.059,5.058l18.168-16.518l18.169,16.518l5.058-5.058c0,0-6.698-8.314-15.457-18.523
	L99.674,5.65z"/><g><path d="M77.566,66.12c0,0-1.879,1.267-3.055,2.665c-1.609,1.911-1.368,3.072-1.368,3.072c7.093,9.251,14.223,8.209,16.862,17.572
		C101.454,77.288,78.015,75.52,77.566,66.12z"/><path d="M97.69,87.353l-5.054,5.061c0,0,1.281,1.982,1.981,1.982c1.786,0,5.056-3.269,5.058-5.057
		C99.676,88.635,97.69,87.353,97.69,87.353z"/><path d="M95.219,88.423l0.004,0.004c6.308-6.307,4.23-14.496-2.074-20.804c-4.325-4.324-9.504-6.628-14.367-5.618
		c1.312-1.258,2.234-2.072,2.234-2.072c0.169-0.581-0.573-2.363-0.574-2.363L67.223,70.79l2.649,2.649
		c0.401-1.776,2.164-4.202,4.172-6.509c5.317-5.136,12.065-2.856,17.358,2.436c5.349,5.346,7.69,12.24,2.348,17.588l-5.185,5.185
		l1.475,1.472l5.178-5.184C95.218,88.426,95.219,88.424,95.219,88.423z"/></g><text x="-0.324" y="109.395" fill="#000000" font-size="5px" font-weight="bold" font-family="'Helvetica Neue', Helvetica, Arial-Unicode, Arial, Sans-serif">Created by Javier Sánchez</text><text x="-0.324" y="114.395" fill="#000000" font-size="5px" font-weight="bold" font-family="'Helvetica Neue', Helvetica, Arial-Unicode, Arial, Sans-serif">from the Noun Project</text></svg>