<svg xmlns="http://www.w3.org/2000/svg" xmlns:xlink="http://www.w3.org/1999/xlink" version="1.1" x="0px" y="0px" viewBox="0 0 100 125" enable-background="new 0 0 100 100" xml:space="preserve"><path d="M48.6,11.2C57.4,9.3,62.5,3.9,72,6c3.1,0.7,4.1,2.9,0.9,4.2c-2.6,1-7-3.3-11-1.6c-2.3,1-8.6,2.8-9.8,5.5  c-1,2.3,1.2,4,1.6,6.6c1,7.7-14.6,14.7-19.8,18c-5.6,3.6-12.9,7.7-19.2,9.6C2.8,52,14.6,36.8,17,33.9c4.2-5.1,8.7-10.1,13-15.1  c2.9-3.3,6.1-7.8,10.3-9.7C44.8,7.1,44.4,10.3,48.6,11.2z"/><path d="M59,33.4c8.8-1.9,13.9-7.3,23.4-5.2c3.1,0.7,4.1,2.9,0.9,4.2c-2.6,1-7-3.3-11-1.6c-2.3,1-8.6,2.8-9.8,5.5  c-1,2.3,1.2,4,1.6,6.6c1,7.7-14.6,14.7-19.8,18c-5.6,3.6-12.9,7.7-19.2,9.6C13.2,74.2,25,59,27.4,56.1C31.6,51,36.1,46,40.4,41  c2.9-3.3,6.1-7.8,10.3-9.7C55.3,29.2,55,32.5,59,33.4z"/><path d="M70.4,54.8c8.8-1.9,13.9-7.3,23.4-5.2c3.1,0.7,4.1,2.9,0.9,4.2c-2.6,1-7-3.3-11-1.6c-2.3,1-8.6,2.8-9.8,5.5  c-1,2.3,1.2,4,1.6,6.6c1,7.7-14.6,14.7-19.8,18c-5.6,3.6-12.9,7.7-19.2,9.6c-11.9,3.7-0.1-11.5,2.3-14.4c4.2-5.1,8.7-10.1,13-15.1  c2.9-3.3,6.1-7.8,10.3-9.7C66.6,50.7,66.3,53.9,70.4,54.8z"/></svg>