<svg xmlns="http://www.w3.org/2000/svg" xmlns:xlink="http://www.w3.org/1999/xlink" version="1.1" x="0px" y="0px" viewBox="0 0 100 125" enable-background="new 0 0 100 100" xml:space="preserve"><circle cx="42.488" cy="59.415" r="2"/><path d="M56.175,75.931c0.311,1.119-0.386,2.035-1.547,2.035h-8.9c-1.162,0-1.858-0.916-1.547-2.035l0.526-1.895  c0.311-1.119,1.516-2.035,2.678-2.035h5.584c1.161,0,2.367,0.916,2.678,2.035L56.175,75.931z"/><path d="M27.55,27.534v-6.587C27.55,12.14,34.689,5,43.496,5h13.006c8.807,0,15.948,7.14,15.948,15.947v6.587H27.55z"/><circle cx="60.368" cy="59.415" r="2.001"/><g><path d="M46.52,56c-0.437,0-0.87-0.189-1.166-0.555c-1.114-1.374-2.765-2.162-4.529-2.162c-1.765,0-3.416,0.788-4.531,2.162   c-0.522,0.643-1.466,0.742-2.11,0.22c-0.643-0.522-0.741-1.467-0.219-2.11c1.687-2.079,4.188-3.271,6.86-3.271   c2.672,0,5.173,1.192,6.859,3.271c0.522,0.644,0.423,1.589-0.22,2.11C47.186,55.891,46.852,56,46.52,56z"/></g><g><path d="M64.79,56c-0.437,0-0.869-0.189-1.166-0.555c-1.114-1.374-2.766-2.162-4.53-2.162s-3.416,0.788-4.53,2.162   c-0.523,0.643-1.467,0.742-2.11,0.22s-0.741-1.467-0.22-2.11c1.688-2.079,4.188-3.271,6.86-3.271s5.173,1.192,6.86,3.271   c0.521,0.644,0.424,1.588-0.22,2.11C65.456,55.891,65.122,56,64.79,56z"/></g><path d="M82.484,32.557H17.566c-1.39,0-2.516,1.126-2.516,2.516s1.126,2.516,2.516,2.516h3.781c-4.125,2.785-6.308,7.15-6.308,12.37  h-0.032c0,4.137,3.353,7.489,7.489,7.489c0.087,0,0.172-0.01,0.258-0.013c0.006,1.982,0.051,4.837,0.229,7.384  c0.243,3.468,2.166,6.063,4.957,6.905c1.565,8.8,7.816,23.253,22.265,23.253c14.449,0,20.699-14.453,22.265-23.253  c2.791-0.842,4.714-3.438,4.957-6.905c0.347-4.947,0.203-9.564,0.197-9.759l-3.998,0.129c0.002,0.046,0.144,4.605-0.189,9.351  c-0.055,0.785-0.422,3.354-2.824,3.472c-0.966,0.048-1.761,0.782-1.886,1.741c-0.113,0.867-2.946,21.225-18.521,21.225  c-15.575,0-18.409-20.357-18.522-21.223c-0.124-0.961-0.918-1.695-1.886-1.743c-2.402-0.117-2.769-2.687-2.824-3.472  c-0.201-2.875-0.228-6.221-0.218-8.426c1.95-1.352,3.229-3.603,3.229-6.155h0.062c0-5.002,2.992-7.459,8.016-7.459h18.81  c0,0,6.05,0.005,6.442-4.911h0.037v6.483c0,4.5,4.091,8.379,8.59,8.379c4.498,0,8.001-3.879,8.001-8.379  c0-2.649-1.22-4.996-3.137-6.483h5.679c1.391,0,2.516-1.126,2.516-2.516S83.875,32.557,82.484,32.557z"/></svg>