<svg xmlns="http://www.w3.org/2000/svg" xmlns:xlink="http://www.w3.org/1999/xlink" version="1.1" x="0px" y="0px" viewBox="0 0 100 125" enable-background="new 0 0 100 100" xml:space="preserve"><circle cx="16" cy="10" r="7"/><circle cx="80" cy="10" r="7"/><path d="M18.331,19h-4.662C10.538,19,8,22.612,8,27.067v11.548v9.317v36.452C8,85.829,9.343,87,11,87s3-1.171,3-2.615V56h4v28.385  C18,85.829,19.343,87,21,87s3-1.171,3-2.615V47.933v-9.317V27.067C24,22.612,21.462,19,18.331,19z"/><path d="M49.212,52h-2.425C45.159,52,44,53.506,44,55.824v6.007v4.847V85.64c0,0.751,0.638,1.36,1.5,1.36s1.5-0.609,1.5-1.36V71h2  v14.64c0,0.751,0.639,1.36,1.5,1.36c0.862,0,1.5-0.609,1.5-1.36V66.678v-4.847v-6.007C52,53.506,50.841,52,49.212,52z"/><path d="M4.619,23H4.381C3.066,23,2,23.679,2,24.516v21.969C2,47.321,3.066,48,4.381,48h0.238C5.934,48,7,47.321,7,46.484V24.516  C7,23.679,5.934,23,4.619,23z"/><path d="M99.406,45.641l-4.94-21.406c-0.188-0.815-1.38-1.237-2.661-0.941l-0.232,0.054c-1.282,0.296-2.167,1.197-1.979,2.012  l4.94,21.405c0.188,0.815,1.38,1.237,2.661,0.941l0.231-0.054C98.71,47.357,99.595,46.456,99.406,45.641z"/><path d="M34.406,45.641l-4.94-21.406c-0.188-0.815-1.38-1.237-2.661-0.941l-0.232,0.054c-1.282,0.296-2.167,1.197-1.979,2.012  l4.94,21.405c0.188,0.815,1.38,1.237,2.661,0.941l0.231-0.054C33.71,47.357,34.595,46.456,34.406,45.641z"/><path d="M60.594,45.641l4.94-21.406c0.188-0.815,1.38-1.237,2.661-0.941l0.232,0.054c1.282,0.296,2.167,1.197,1.979,2.012  l-4.94,21.405c-0.188,0.815-1.38,1.237-2.661,0.941l-0.231-0.054C61.29,47.357,60.405,46.456,60.594,45.641z"/><circle cx="47.758" cy="46.667" r="3.667"/><path d="M88,26h-0.056c-0.367-3.95-2.737-7-5.613-7h-4.662c-2.876,0-5.246,3.05-5.613,7H72l-8,40h8v18.385  C72,85.829,73.344,87,75,87s3-1.171,3-2.615V66h4v18.385C82,85.829,83.344,87,85,87s3-1.171,3-2.615V66h8L88,26z"/><path d="M43.191,54.64c-0.4,0.726-1.25,1.024-1.901,0.666l-7.84-4.327c-0.65-0.358-0.851-1.238-0.451-1.962l0,0  c0.4-0.725,1.251-1.023,1.901-0.666l7.84,4.327C43.39,53.036,43.591,53.915,43.191,54.64L43.191,54.64z"/><path d="M52.998,54.64c0.4,0.726,1.251,1.024,1.901,0.666l7.841-4.327c0.649-0.358,0.851-1.238,0.451-1.962l0,0  c-0.4-0.725-1.252-1.023-1.901-0.666l-7.841,4.327C52.8,53.036,52.599,53.915,52.998,54.64L52.998,54.64z"/></svg>