<svg xmlns="http://www.w3.org/2000/svg" xmlns:xlink="http://www.w3.org/1999/xlink" version="1.1" x="0px" y="0px" viewBox="0 0 100 125" enable-background="new 0 0 100 100" xml:space="preserve"><g display="none"><path display="inline" d="M95,69.7c0-7.7-6.3-14-14-14h-8.8v-5.6h2.7v2h6v-2h1.5v-5.2h-1.5v-2h-6v2h-2.7V11c0-2.7-2.2-5-5-5H32.8   c-2.7,0-5,2.2-5,5v33.9h-2.6v-2h-6v2h-1.6v5.2h1.6v2h6v-2h2.6v5.6H19c-7.7,0-14,6.3-14,14L5,94h90L95,69.7z"/><g display="inline"><path fill="#000000" d="M67.2,7.9H32.8c-1.7,0-3,1.4-3,3v6l19.8-0.2v-2c-0.5-0.3-0.8-0.8-0.8-1.4c0-0.9,0.7-1.6,1.6-1.6    c0.9,0,1.6,0.7,1.6,1.6c0,0.6-0.4,1.2-0.9,1.5v1.9l5.4-0.1v-1.9c-0.5-0.3-0.8-0.8-0.8-1.4c0-0.9,0.7-1.6,1.6-1.6    c0.9,0,1.6,0.7,1.6,1.6c0,0.6-0.4,1.2-0.9,1.5v1.8l5.4-0.1v-1.9c-0.5-0.3-0.8-0.8-0.8-1.4c0-0.9,0.7-1.6,1.6-1.6    c0.9,0,1.6,0.7,1.6,1.6c0,0.6-0.4,1.2-0.9,1.5v1.8l5.4-0.1V11C70.3,9.3,68.9,7.9,67.2,7.9z"/></g><path display="inline" fill="#000000" d="M64.9,19.3v1.3c0.5,0.3,0.9,0.8,0.9,1.4c0,0.9-0.7,1.6-1.6,1.6c-0.9,0-1.6-0.7-1.6-1.6   c0-0.6,0.3-1.1,0.8-1.4v-1.4L57.9,19v1.6c0.5,0.3,0.9,0.8,0.9,1.4c0,0.9-0.7,1.6-1.6,1.6c-0.9,0-1.6-0.7-1.6-1.6   c0-0.6,0.3-1.1,0.8-1.4V19L51,18.8v1.8c0.5,0.3,0.9,0.8,0.9,1.4c0,0.9-0.7,1.6-1.6,1.6c-0.9,0-1.6-0.7-1.6-1.6   c0-0.6,0.3-1.1,0.8-1.4v-1.9l-19.9-0.6V59c0.1,3.9,3.2,7,7.1,7h26.5c3.9,0,7-3.2,7-7V19.4L64.9,19.3z"/><path display="inline" d="M46.3,37.4c-0.1,2.2-2,4-4.2,4c-2.3,0-4.3-1.9-4.3-4.3c0-0.1,0-0.3,0-0.4l-6-0.5c0,4.6,3.8,8.4,8.4,8.4   c0,0,5.2,0.3,6.1,0.3c0.9,0,1.3-1,1.3-1l0.8-6.4L46.3,37.4z"/><path display="inline" d="M39.9,36.9c0,0.1,0,0.2,0,0.3c0,1.2,1,2.2,2.2,2.2c1.2,0,2.1-0.9,2.2-2.1L39.9,36.9z"/><path display="inline" d="M53.9,37.4c0.1,2.2,2,4,4.2,4c2.3,0,4.3-1.9,4.3-4.3c0-0.1,0-0.3,0-0.4l6-0.5c0,4.6-3.8,8.4-8.4,8.4   c0,0-5.2,0.3-6.1,0.3c-0.9,0-1.3-1-1.3-1l-0.8-6.4L53.9,37.4z"/><path display="inline" d="M60.3,36.9c0,0.1,0,0.2,0,0.3c0,1.2-1,2.2-2.2,2.2c-1.2,0-2.1-0.9-2.2-2.1L60.3,36.9z"/><path display="inline" d="M39.7,58.8h20.4h1.7c0.8,0,1.3-0.9,0.8-1.6c-1.4-2.1-3.3-3.2-6.1-3.4l-6.5,0h-0.2l-6.5,0   c-2.8,0.2-4.7,1.3-6.1,3.4c-0.5,0.7,0,1.6,0.8,1.6H39.7z"/></g><g><g><path d="M52.3,67.2c0,0.2-0.1,0.3-0.3,0.3h-3.5c-0.2,0-0.3-0.1-0.3-0.3v-2.6c0-0.2,0.1-0.3,0.3-0.3H52c0.2,0,0.3,0.1,0.3,0.3V67.2    z"/><path d="M58.4,69.4c0,0.1-0.1,0.2-0.1,0.2c-0.1,0-0.2,0-0.2,0l-4.9-2c-0.1,0-0.2-0.2-0.2-0.3v-2.8c0-0.1,0.1-0.2,0.2-0.3l6.4-2.3    c0.1,0,0.2,0,0.3,0.1c0.1,0.1,0.1,0.2,0.1,0.3L58.4,69.4z"/><path d="M42.1,69.4c0,0.1,0.1,0.2,0.1,0.2c0.1,0,0.2,0,0.2,0l4.9-2c0.1,0,0.2-0.2,0.2-0.3v-2.8c0-0.1-0.1-0.2-0.2-0.3l-6.6-2.4    c-0.1,0-0.1,0-0.2,0c-0.1,0-0.1,0.1-0.1,0.2L42.1,69.4z"/></g><path fill="#000000" stroke="#000000" stroke-width="1.1706" stroke-miterlimit="10" d="M33,17.5"/><path d="M56.5,40.9l-2.3,4.8l-0.5-5.2c-1.5-0.2-3.1-0.3-4.5-0.3c-1.4,0-3,0.1-4.5,0.3l-0.5,5.2l-2.3-4.8c-1.6,0.3-2.8,0.5-2.8,0.5   s1.2,3.7,3.5,6.4c2.6,3.1,9.6,3.7,13,0c2.4-2.6,3.5-6.4,3.5-6.4S58.2,41.1,56.5,40.9z"/><path fill="#000000" stroke="#000000" stroke-width="1.1706" stroke-miterlimit="10" d="M33.6,30.9"/><path d="M88.1,76.4c-3.5-8.2-11.3-13.7-17.8-16.9c7.1-10.9,11.4-26.4,11.4-26.4c-6.5,4.9-11.7,7.3-15.4,8.4   c0.2-2.8,0.4-6.3,0.6-10.3c0-0.2,0-0.3,0-0.5C72.8,3.9,50.2,6.2,50.2,6.2S34.3,4.6,32.6,19.9c-0.2,0.9-0.3,1.8-0.2,2.8   c0,0.2,0.1,0.5,0.1,0.8c0,0.9,0.1,1.9,0.2,2.9c0.1,1.5,0.2,3.2,0.3,4.9c0.2,3.9,0.4,7.4,0.6,10.2c-4-1.1-9.7-3.4-16.3-8.4   c0,0,4.4,15.9,11.7,26.8c-6.3,3.3-13.6,8.6-16.9,16.5L8.1,93.9h41.2h1.5h41.1L88.1,76.4z M50,15.9C60.1,7.6,64.4,19.8,66,27   c-0.1,1.3-0.1,2.7-0.2,4.2c-0.3,6.7-0.7,14.9-1.6,16.7c-3.7,7.2-9,11.5-14.2,11.6l0,0.6v-0.6c-5.2,0-10.6-4.3-14.3-11.5   c-0.9-1.8-1.3-10-1.6-16.7c0-0.8-0.1-1.6-0.1-2.4C35.1,22.3,38.9,6.8,50,15.9z M60.2,63.9v8c-2.4,11.3-10.1,16-10.1,16   s-7.7-4.7-10.1-16v-8v-6.7l0-1.5c3.1,3.1,6.6,4.8,10.1,4.8h0c3.5,0,7.1-1.8,10.2-5l0,3.9V63.9z"/><ellipse transform="matrix(-0.988 -0.1544 0.1544 -0.988 82.3984 57.2911)" cx="43.4" cy="25.4" rx="1.5" ry="2.7"/><ellipse transform="matrix(0.988 -0.1544 0.1544 0.988 -3.2615 8.8867)" cx="55.6" cy="25.4" rx="1.5" ry="2.7"/></g></svg>