<svg xmlns="http://www.w3.org/2000/svg" xmlns:xlink="http://www.w3.org/1999/xlink" version="1.1" x="0px" y="0px" viewBox="0 0 100 125" enable-background="new 0 0 100 100" xml:space="preserve"><g><path d="M35.354,38.674c-4.607-1.465-9.238,0.162-10.343,3.635c-1.104,3.473,1.735,7.475,6.342,8.94   c4.608,1.465,9.238-0.162,10.343-3.635C42.8,44.143,39.96,40.14,35.354,38.674z M33.354,49.834c0,0-1.949-2.182-1.949-4.873   s1.949-4.873,1.949-4.873s1.949,2.182,1.949,4.873S33.354,49.834,33.354,49.834z"/><path d="M64.646,38.674c-4.605,1.465-7.446,5.468-6.342,8.941c1.104,3.473,5.733,5.1,10.342,3.635   c4.607-1.466,7.444-5.469,6.343-8.94C73.885,38.836,69.254,37.209,64.646,38.674z M66.646,49.834c0,0-1.948-2.182-1.948-4.873   s1.948-4.873,1.948-4.873s1.949,2.182,1.949,4.873S66.646,49.834,66.646,49.834z"/><path d="M97.277,62.501l1.334-2.514c-1.572-0.834-4.104-2.18-7.444-3.329c0.259-1.871,0.396-3.782,0.396-5.724   c0-5.188-0.961-9.88-2.861-13.967c0.451-0.408,0.88-0.814,1.295-1.231c8.984-8.983,6.213-25.861,6.09-26.575l-0.17-0.991L94.925,8   c-0.713-0.123-17.593-2.895-26.577,6.089c-1.701,1.702-3.209,3.543-4.486,5.481c-4.256-0.883-8.913-1.33-13.859-1.33   c-4.946,0-9.604,0.447-13.859,1.33c-1.279-1.938-2.785-3.779-4.487-5.481C22.669,5.106,5.789,7.877,5.077,8L4.085,8.17l-0.17,0.991   c-0.123,0.714-2.896,17.592,6.089,26.575c0.416,0.417,0.845,0.823,1.296,1.231c-1.9,4.087-2.862,8.778-2.862,13.967   c0,1.94,0.138,3.853,0.396,5.724c-3.339,1.149-5.872,2.495-7.445,3.329l1.335,2.514c1.415-0.752,3.66-1.943,6.606-2.988   c0.345,1.633,0.784,3.231,1.313,4.789c-2.407,0.93-4.828,2.085-7.223,3.491l1.439,2.453c1.949-1.144,4.285-2.24,6.835-3.185   C18.005,81.994,32.799,92.498,50,92.498s31.996-10.504,38.307-25.437c2.549,0.943,4.885,2.041,6.834,3.185l1.44-2.453   c-2.396-1.406-4.817-2.562-7.224-3.491c0.529-1.558,0.969-3.156,1.312-4.789C93.618,60.558,95.863,61.749,97.277,62.501z    M88.398,55.815c-7.838-2.088-19.028-2.512-32.174,5.188l1.438,2.456c12.406-7.269,22.945-6.798,30.279-4.801   c-0.326,1.604-0.762,3.171-1.28,4.696c-11.88-3.775-23.038-2.078-28.481,2.762l1.889,2.127c6.106-5.43,16.674-4.815,25.529-2.094   C79.676,79.956,65.951,89.653,50,89.653c-15.95,0-29.676-9.697-35.599-23.504c8.856-2.723,19.422-3.336,25.528,2.094l1.891-2.127   c-5.444-4.84-16.603-6.537-28.483-2.762c-0.518-1.525-0.953-3.093-1.278-4.696c7.332-1.997,17.871-2.468,30.278,4.801l1.438-2.456   c-13.146-7.699-24.336-7.275-32.174-5.188c-0.203-1.602-0.318-3.227-0.318-4.879c0-5.16,1.021-9.76,3.038-13.668l0.518-1.002   l-0.859-0.732c-0.713-0.607-1.354-1.198-1.963-1.808c-6.77-6.769-5.865-19.39-5.436-23.061c3.671-0.429,16.292-1.333,23.061,5.436   c1.794,1.794,3.349,3.751,4.621,5.816l0.533,0.866l0.992-0.225C40.1,21.581,44.882,21.085,50,21.085   c5.117,0,9.898,0.495,14.211,1.473l0.992,0.225l0.533-0.866c1.273-2.065,2.828-4.022,4.621-5.816   c6.77-6.769,19.39-5.864,23.062-5.436c0.431,3.671,1.333,16.292-5.437,23.061c-0.607,0.609-1.25,1.2-1.963,1.808l-0.858,0.732   l0.517,1.002c2.018,3.908,3.039,8.508,3.039,13.668C88.717,52.589,88.602,54.214,88.398,55.815z"/><path d="M54.807,77.217c-1.543-0.209-3.384-1.012-3.384-3.644V62.051c1.277-0.319,2.492-1.067,3.479-2.255   c2.695-3.244,0.49-5.9-4.902-5.9c-5.392,0-7.599,2.656-4.902,5.9c0.986,1.188,2.202,1.936,3.479,2.255v11.522   c0,2.632-1.84,3.435-3.383,3.644c-3.779,0.513-9.966-2.223-11.755-8.69l-2.741,0.759c1.933,6.985,8.215,10.844,13.502,10.844   c0.468,0,0.929-0.03,1.377-0.092c1.896-0.257,3.409-1.066,4.423-2.281c1.014,1.215,2.527,2.024,4.423,2.281   c0.448,0.062,0.909,0.092,1.376,0.092c5.287,0,11.571-3.858,13.503-10.844l-2.741-0.759C64.771,74.994,58.583,77.729,54.807,77.217   z"/></g><text x="0" y="115" fill="#000000" font-size="5px" font-weight="bold" font-family="'Helvetica Neue', Helvetica, Arial-Unicode, Arial, Sans-serif">Created by Marco Petrucci</text><text x="0" y="120" fill="#000000" font-size="5px" font-weight="bold" font-family="'Helvetica Neue', Helvetica, Arial-Unicode, Arial, Sans-serif">from the Noun Project</text></svg>