<svg xmlns="http://www.w3.org/2000/svg" xmlns:xlink="http://www.w3.org/1999/xlink" version="1.1" x="0px" y="0px" viewBox="0 0 100 125" enable-background="new 0 0 100 100" xml:space="preserve"><g><path d="M88,31.6l-1.1-17.5c-0.2-3.5-3.2-6.3-6.7-6.3c-1.3,0-2.6,0.4-3.7,1.1l-10.5,7c-5.1-1.7-10.4-2.5-15.9-2.5   s-10.8,0.9-15.9,2.5l-10.5-7c-1.1-0.7-2.4-1.1-3.7-1.1c-3.6,0-6.5,2.8-6.7,6.3L12,31.6c-4.6,6.3-7,13.6-7,21.2   c0,21.8,20.2,39.4,45,39.4s45-17.7,45-39.4C95,45.2,92.6,37.9,88,31.6z M50,90.2c-23.7,0-43-16.8-43-37.5c0-7.2,2.4-14.2,6.8-20.3   c0.1-0.2,0.2-0.3,0.2-0.5l1.1-17.8c0.2-2.8,2.6-4.5,4.8-4.5c0.9,0,1.8,0.3,2.6,0.8l10.9,7.2c0.3,0.2,0.6,0.2,0.9,0.1   c5-1.7,10.3-2.6,15.8-2.6c5.4,0,10.7,0.9,15.8,2.6c0.3,0.1,0.6,0.1,0.9-0.1l10.9-7.2c0.8-0.5,1.7-0.8,2.6-0.8   c2.2,0,4.6,1.7,4.8,4.5L86,32c0,0.2,0.1,0.4,0.2,0.5c4.5,6,6.8,13,6.8,20.3C93,73.4,73.7,90.2,50,90.2z"/><path d="M31.6,38.3c-4.9,0-9.1,2.9-10.2,7.1c-0.1,0.5,0.2,1.1,0.7,1.2c0.5,0.1,1.1-0.2,1.2-0.7c0.9-3.3,4.3-5.6,8.3-5.6   s7.4,2.3,8.3,5.6c0.1,0.4,0.5,0.7,1,0.7c0.1,0,0.2,0,0.3,0c0.5-0.1,0.8-0.7,0.7-1.2C40.7,41.2,36.5,38.3,31.6,38.3z"/><path d="M78.4,45.3c-1.1-4.2-5.3-7.1-10.2-7.1c-4.9,0-9.1,2.9-10.2,7.1c-0.1,0.5,0.2,1.1,0.7,1.2c0.5,0.1,1.1-0.2,1.2-0.7   c0.9-3.3,4.3-5.6,8.3-5.6s7.4,2.3,8.3,5.6c0.1,0.4,0.5,0.7,1,0.7c0.1,0,0.2,0,0.3,0C78.2,46.4,78.5,45.9,78.4,45.3z"/><path d="M21.6,28.6c-0.4,0.2-0.6,0.7-0.4,1.1l1.7,4c0.1,0.3,0.4,0.5,0.8,0.5c0.1,0,0.2,0,0.3-0.1c0.4-0.2,0.6-0.7,0.4-1.1l-1.7-4   C22.5,28.6,22,28.4,21.6,28.6z"/><path d="M27.7,25.8c-0.4,0.1-0.7,0.5-0.7,1l0.8,4.9c0.1,0.4,0.4,0.7,0.8,0.7h0.1c0.4-0.1,0.7-0.5,0.7-1l-0.8-4.9   C28.6,26,28.1,25.7,27.7,25.8z"/><path d="M78.2,28.6c-0.4-0.2-0.9,0-1.1,0.4l-1.7,4c-0.2,0.4,0,0.9,0.4,1.1c0.1,0,0.2,0.1,0.3,0.1c0.3,0,0.6-0.2,0.8-0.5l1.7-4   C78.8,29.2,78.6,28.8,78.2,28.6z"/><path d="M71,32.3L71,32.3c0.5,0,0.8-0.3,0.9-0.7l0.8-4.9c0.1-0.4-0.2-0.9-0.7-1c-0.4-0.1-0.9,0.2-1,0.7l-0.8,4.9   C70.2,31.8,70.5,32.2,71,32.3z"/><path d="M57.2,56.2c-0.4-0.1-0.9,0.2-0.9,0.7c0,0.1-0.3,1.8-1.9,1.8c-1.2,0-3,0-3.6-3.7c0-0.3,0.1-0.6,0.1-0.8   c0.4-0.2,0.7-0.4,0.9-0.8l1.3-2c0.8-1.3-0.2-2.8-1.9-2.8h-2.7c-1.7,0-2.7,1.6-1.9,2.8l1.3,2c0.2,0.4,0.6,0.6,0.9,0.8   c0,0.3,0.1,0.6,0.1,0.8c-0.6,3.7-2.4,3.7-3.6,3.7c-1.5,0-1.9-1.6-1.9-1.8c-0.1-0.4-0.5-0.8-0.9-0.7s-0.8,0.5-0.7,0.9   c0.2,1.1,1.1,3.2,3.5,3.2c1.6,0,3.4-0.4,4.4-2.5c1.1,2.1,2.8,2.5,4.4,2.5c2.4,0,3.4-2.1,3.5-3.2C57.9,56.7,57.6,56.3,57.2,56.2z"/><path d="M20,25.9c2.4-2,5-3.7,7.9-5.2c1-0.5,1.1-2,0.2-2.6L21,13.4c-0.3-0.2-0.6-0.3-1-0.3c-0.8,0-1.7,0.6-1.8,1.7l-0.6,9.8   C17.4,26,18.9,26.8,20,25.9z"/><path d="M71.6,21c3,1.6,5.7,3.4,8.2,5.6c1,0.9,2.6,0.1,2.5-1.2L81.6,15c-0.1-1.1-1-1.7-1.8-1.7c-0.3,0-0.7,0.1-1,0.3l-7.4,4.9   C70.5,19,70.6,20.4,71.6,21z"/><path d="M11.4,53.5c0.1,0.1,3.6,2.5,9.1,2.7l0,0c0.4,0,0.8-0.3,0.8-0.8s-0.3-0.8-0.8-0.9c-4.9-0.2-8.2-2.4-8.2-2.4   c-0.4-0.3-0.9-0.2-1.1,0.2C11,52.7,11.1,53.2,11.4,53.5z"/><path d="M20.4,60.9c0.5,0,0.8-0.4,0.8-0.9s-0.4-0.8-0.9-0.8c-4.9,0.4-8.4-1.4-8.4-1.4c-0.4-0.2-0.9-0.1-1.1,0.3   c-0.2,0.4-0.1,0.9,0.3,1.1c0.1,0.1,3.2,1.7,7.8,1.7C19.4,61,19.9,60.9,20.4,60.9z"/><path d="M21.5,63.6c-4.8,1.2-8.5,0-8.6-0.1c-0.4-0.1-0.9,0.1-1,0.5c-0.1,0.4,0.1,0.9,0.5,1c0.1,0,2,0.7,4.8,0.7   c1.4,0,2.9-0.1,4.6-0.6c0.4-0.1,0.7-0.6,0.6-1C22.4,63.7,21.9,63.5,21.5,63.6z"/><path d="M78.6,55.4c0,0.4,0.4,0.8,0.8,0.8l0,0c5.5-0.2,8.9-2.6,9.1-2.7c0.4-0.3,0.5-0.8,0.2-1.1c-0.3-0.4-0.8-0.5-1.1-0.2   c0,0-3.2,2.2-8.2,2.4C78.9,54.6,78.6,54.9,78.6,55.4z"/><path d="M89.3,58.2c-0.2-0.4-0.7-0.6-1.1-0.3c0,0-3.5,1.8-8.4,1.4c-0.4,0-0.8,0.3-0.9,0.8s0.3,0.8,0.8,0.9c0.5,0,1,0.1,1.5,0.1   c4.6,0,7.7-1.6,7.8-1.7C89.3,59.1,89.5,58.6,89.3,58.2z"/><path d="M87.1,63.5c0,0-3.7,1.2-8.6,0.1c-0.4-0.1-0.9,0.2-1,0.6s0.2,0.9,0.6,1c1.7,0.4,3.3,0.6,4.6,0.6c2.8,0,4.7-0.6,4.8-0.7   c0.4-0.1,0.7-0.6,0.5-1C88,63.6,87.5,63.4,87.1,63.5z"/></g></svg>