<svg xmlns="http://www.w3.org/2000/svg" xmlns:xlink="http://www.w3.org/1999/xlink" version="1.1" x="0px" y="0px" viewBox="-54 381.4 90 112.5" style="enable-background:new -54 381.4 90 90;" xml:space="preserve"><g><path d="M35.4,414.7c0,5.9-2.5,11.2-6.5,14.9L1.3,457.2c-0.5,0.5-1.2,0.8-1.8,0.8h0c-0.7,0-1.3-0.2-1.9-0.8l-2.4-2.4l20.8-20.9   c5.3-5,8.3-12,8.3-19.2c0-8.2-3.8-15.5-9.6-20.3c0.1,0,0.2,0,0.3,0h0C26.3,394.4,35.4,403.5,35.4,414.7z"/><g><path d="M18.4,414.7c0,5.9-2.5,11.2-6.5,14.9l-27.5,27.6c-0.5,0.5-1.2,0.8-1.8,0.8h-0.1c-0.7,0-1.3-0.3-1.8-0.8l-27.5-27.6    c-4-3.7-6.5-9-6.5-14.9c0-11.2,9.1-20.3,20.3-20.3c6.3,0,11.9,2.8,15.6,7.3c3.7-4.5,9.3-7.3,15.6-7.3h0    C9.3,394.4,18.4,403.5,18.4,414.7z"/></g></g></svg>