<svg xmlns="http://www.w3.org/2000/svg" xmlns:xlink="http://www.w3.org/1999/xlink" version="1.1" x="0px" y="0px" viewBox="0 0 100 125" enable-background="new 0 0 100 100" xml:space="preserve"><g><path d="M89.996,35.739c8.984-8.984,6.211-25.862,6.089-26.576l-0.17-0.992L94.924,8c-0.715-0.122-17.591-2.896-26.576,6.09   c-1.701,1.701-3.208,3.542-4.487,5.481c-4.256-0.883-8.913-1.331-13.861-1.331c-4.947,0-9.604,0.448-13.86,1.331   c-1.279-1.939-2.786-3.78-4.487-5.481C22.667,5.105,5.791,7.878,5.077,8L4.084,8.17l-0.17,0.992   C3.792,9.876,1.02,26.754,10.003,35.739c0.412,0.412,0.846,0.823,1.297,1.23c-1.9,4.085-2.864,8.777-2.864,13.966   c0,22.917,18.646,41.562,41.563,41.562c22.918,0,41.564-18.645,41.564-41.562c0-5.188-0.963-9.881-2.863-13.966   C89.15,36.562,89.584,36.151,89.996,35.739z M88.718,50.935c0,21.349-17.369,38.717-38.718,38.717   c-21.349,0-38.718-17.368-38.718-38.717c0-5.16,1.022-9.758,3.038-13.665l0.52-1.004l-0.861-0.732   c-0.695-0.592-1.355-1.199-1.963-1.807c-6.783-6.783-5.869-19.394-5.437-23.061c3.67-0.431,16.292-1.335,23.062,5.436   c1.794,1.793,3.349,3.75,4.621,5.816l0.533,0.866l0.993-0.225c4.312-0.979,9.094-1.474,14.212-1.474   c5.12,0,9.901,0.495,14.213,1.474l0.992,0.225l0.533-0.866c1.272-2.066,2.828-4.023,4.621-5.816   c6.77-6.771,19.393-5.866,23.062-5.436c0.434,3.667,1.347,16.277-5.436,23.061c-0.607,0.607-1.269,1.215-1.964,1.807l-0.86,0.732   l0.519,1.004C87.695,41.177,88.718,45.775,88.718,50.935z"/><polygon points="59.807,51.553 61.817,53.564 67.538,47.844 73.258,53.564 75.27,51.553 69.549,45.833 75.27,40.113 73.258,38.101    67.537,43.822 61.816,38.101 59.806,40.113 65.526,45.833  "/><path d="M79.373,59.258l-4.104-4.103l-4.458,4.458c-1.962-1.366-6.42-2.954-14.167,1.893l1.508,2.412   c8.417-5.263,11.467-1.642,11.577-1.506l0.983,1.324l4.557-4.558l4.104,4.103l4.743-4.742l-2.012-2.012L79.373,59.258z"/><path d="M71.765,65.88c-1.412-0.884-3.316-1.25-4.241-1.383c-3.972-0.571-7.791,0.258-10.217,2.217l1.788,2.214   c2.145-1.732,5.552-1.97,8.024-1.615c2.21,0.318,3.344,1.025,3.547,1.318l0.97,1.401l4.29-4.291l2.844,2.845l2.012-2.012   l-4.855-4.856L71.765,65.88z"/><path d="M69.257,71.378c-3.126-1.418-7.258,0.616-11.255,2.582c-1.839,0.904-5.262,2.588-5.994,2.131   c-0.064-0.039-0.246-0.348-0.246-1.212c0-5.682-0.124-10.179-0.222-12.863c1.233-0.334,2.407-1.068,3.362-2.219   c2.697-3.246,0.491-5.9-4.903-5.9c-5.394,0-7.599,2.654-4.902,5.9c0.956,1.15,2.129,1.885,3.363,2.219   c-0.099,2.685-0.223,7.182-0.223,12.863c0,0.864-0.182,1.173-0.246,1.212c-0.732,0.457-4.155-1.227-5.994-2.131   c-3.997-1.966-8.129-4-11.254-2.582c-1.461,0.662-2.466,1.985-2.99,3.934l2.747,0.739c0.441-1.64,1.176-1.973,1.417-2.082   c1.902-0.859,5.74,1.027,8.825,2.544c2.649,1.304,5.032,2.476,6.934,2.476c0.669,0,1.278-0.146,1.819-0.482   c0.187-0.115,0.351-0.255,0.504-0.406c0.153,0.151,0.318,0.291,0.504,0.406c0.542,0.337,1.151,0.482,1.821,0.482   c0.954,0,2.029-0.295,3.198-0.754c0.317,0.673,0.782,1.661,1.476,3.134c0.824,1.754,2.298,2.844,4.041,2.99   c0.129,0.011,0.259,0.016,0.388,0.016c1.572,0,3.117-0.793,4.019-2.089c0.998-1.438,1.098-3.268,0.272-5.021l-1.402-2.98   c1.502-0.505,2.856-0.726,3.767-0.314c0.241,0.109,0.976,0.442,1.417,2.082l2.747-0.739C71.723,73.363,70.717,72.04,69.257,71.378z    M63.144,78.476c0.392,0.833,0.38,1.589-0.035,2.186c-0.398,0.574-1.129,0.918-1.831,0.862c-0.724-0.062-1.313-0.533-1.706-1.366   c-0.677-1.438-1.136-2.415-1.452-3.087c0.374-0.182,0.753-0.367,1.139-0.558c0.772-0.379,1.592-0.782,2.416-1.159   C61.991,76.026,62.455,77.012,63.144,78.476z"/><polygon points="26.742,53.564 32.461,47.844 38.182,53.564 40.194,51.553 34.474,45.833 40.195,40.113 38.183,38.101    32.462,43.822 26.742,38.101 24.73,40.113 30.451,45.833 24.73,51.553  "/><path d="M24.73,59.179l4.558,4.558l0.982-1.324c0.11-0.136,3.161-3.757,11.577,1.506l1.508-2.412   c-7.746-4.847-12.205-3.259-14.167-1.893l-4.458-4.458l-4.104,4.103l-2.731-2.73l-2.011,2.012l4.742,4.742L24.73,59.179z"/><path d="M29.333,68.631c0.203-0.293,1.337-1,3.547-1.318c2.473-0.354,5.881-0.117,8.025,1.615l1.787-2.214   c-2.425-1.959-6.244-2.788-10.217-2.217c-0.925,0.133-2.829,0.499-4.241,1.383l-4.161-4.162l-4.855,4.856l2.012,2.012l2.844-2.845   l4.29,4.291L29.333,68.631z"/></g></svg>